<?xml version="1.0" encoding="UTF-8"?>
<svg id="Layer_1" xmlns="http://www.w3.org/2000/svg" version="1.1" viewBox="0 0 584.1 93.1">
  <!-- Generator: Adobe Illustrator 30.0.0, SVG Export Plug-In . SVG Version: 2.1.1 Build 123)  -->
  <defs>
    <style>
      .st0 {
        fill: #aa182c;
      }

      .st1 {
        fill: #c40d3c;
      }

      .st2 {
        fill: #2a3036;
      }

      .st3 {
        fill: #ed1c25;
      }
    </style>
  </defs>
  <path class="st2" d="M89.4,39.4c-1.8-2.6-4.2-4.3-7.3-5.3-1.7-.5-3.9-.9-6.5-1h-18.2v42.3h18.2c6.4,0,11.1-2.7,14.2-7.9,2.3-3.9,3.4-8.7,3.4-14.2s-.3-4.6-.8-7c-.5-2.5-1.5-4.8-3-6.8h0ZM82.9,61.8c-1.6,4.1-4.6,6.2-8.8,6.2h-8.1v-27.6h8.1c4,0,6.7,1.1,8,3.4s2,5.6,2,9.9-.4,5.8-1.3,8Z"/>
  <path class="st2" d="M124.9,49.4c-1.3-2.1-3-3.6-5.1-4.7-2.1-1-4.4-1.4-7-1.4-4.3,0-8,1.4-10.6,4.3-2.1,2.2-3.4,5.2-3.9,8.9h-3.8v5.3h3.6c.3,4.9,1.8,8.4,4.4,10.6,3,2.6,6.5,3.8,10.5,3.8s8.6-1.5,11.2-4.6c1.7-1.9,2.7-3.8,2.8-5.6h-8.4c-.4,1-1,1.6-1.5,2.2-1.1,1-2.4,1.4-4.1,1.4s-2.9-.4-4.1-1.1c-1.9-1.2-2.8-3.4-2.9-6.5h21.4c0-2.7,0-4.8-.3-6.2-.4-2.5-1.1-4.6-2.4-6.5h0,0ZM106.3,56.6c.3-2,1-3.6,2-4.9,1.1-1.1,2.5-1.8,4.3-1.8s3.3.5,4.3,1.7c1.1,1.1,1.8,2.7,2,5h-12.7Z"/>
  <path class="st2" d="M150,56.6c-4.9-1.1-7.7-1.8-8.6-2.3-.8-.4-1.2-1.1-1.2-2s.4-1.4,1.1-2c.8-.5,2-.9,3.8-.9s3.7.5,4.6,1.7c.4.5.8,1.4.9,2.5h8.1c-.4-3.8-1.8-6.5-4.2-8-2.5-1.5-5.6-2.3-9.5-2.3s-7.3,1.1-9.6,3.1c-2.3,2.1-3.4,4.6-3.4,7.4s.8,4.2,2.2,5.6,4,2.4,7.5,3.4c5,1.1,7.8,2,8.6,2.5s1.1,1.1,1.1,2.1-.4,1.7-1.4,2.2c-1,.4-2.2.8-3.8.8-2.7,0-4.6-.5-5.6-1.6-.5-.5-1-1.6-1.1-3.1h-8.2c0,3.3,1.1,5.9,3.5,7.9,2.4,2.1,6,3.1,11,3.1s8.4-1,10.6-2.9c2.3-2,3.4-4.4,3.4-7.6s-.8-4.2-2.4-5.9c-1.6-1.5-4.1-2.7-7.3-3.5h-.3Z"/>
  <path class="st2" d="M178.4,69.6c-1.7,0-2.7-.2-2.9-.4s-.4-1.1-.4-2.4v-16.5h5v-5.8h-5v-8.8h-8v8.8h-4.3v5.8h4.3v19.2c0,2,.4,3.4,1.3,4.3,1.4,1.4,4.1,2.2,7.9,2l3.9-.2v-6.1h-1.7Z"/>
  <path class="st2" d="M209.7,49.4c-1.3-2.1-3-3.6-5.1-4.7-2.1-1-4.4-1.4-7-1.4-4.3,0-8,1.4-10.6,4.3-2.1,2.2-3.4,5.2-3.9,8.9h-3.8v5.3h3.7c.3,4.9,1.8,8.4,4.4,10.6,3,2.6,6.5,3.8,10.5,3.8s8.6-1.5,11.2-4.6c1.7-1.9,2.7-3.8,2.8-5.6h-8.4c-.4,1-1,1.6-1.5,2.2-1.1,1-2.4,1.4-4.1,1.4s-2.9-.4-4.1-1.1c-1.9-1.2-2.8-3.4-2.9-6.5h21.4c0-2.7,0-4.8-.3-6.2-.4-2.5-1.1-4.6-2.4-6.5h0ZM191.3,56.6c.3-2,1-3.6,2-4.9,1.1-1.1,2.5-1.8,4.3-1.8s3.3.5,4.3,1.7c1.1,1.1,1.8,2.7,2,5h-12.7Z"/>
  <path class="st2" d="M234,56.2l11-11.9h-10.1l-10.2,11.8v-22.8h-8v42.1h8v-9.8l3.4-3.5,7.5,13.3h9.9l-11.4-19.1h0Z"/>
  <path class="st2" d="M251.7,75.5v-42.6h15.4c2.5,0,4.7.3,6.4.8,1.8.4,3.3,1.2,4.3,2.2,1.1,1,1.9,2.1,2.5,3.4.4,1.3.8,2.7.8,4.3s-.2,2.7-.5,3.9c-.4,1.1-1,2-1.5,2.7-.7.8-1.3,1.3-2.2,1.7s-1.6.7-2.5.9c2.9.5,5.1,1.7,6.5,3.6,1.4,1.9,2.2,4.2,2.2,7.2s-.4,4.1-1.1,5.6c-.7,1.5-1.6,2.7-2.8,3.7s-2.7,1.6-4.3,2c-1.7.4-3.6.7-5.6.7h-17.5v-.2ZM255.7,51.7h10.2c2.1,0,3.8-.2,5.2-.5s2.6-.9,3.4-1.6,1.5-1.5,1.9-2.6c.4-1.1.5-2.2.5-3.4s-.2-2.5-.7-3.4c-.4-1-1.1-1.7-2.1-2.3-1-.5-2.2-1-3.7-1.2s-3.4-.4-5.6-.4h-9.3v15.4h.2ZM255.7,72.1h10.3c2.2,0,4.2,0,5.8-.3,1.6-.2,2.9-.5,4.1-1.2,1.1-.5,1.9-1.5,2.4-2.6.5-1.1.8-2.7.8-4.4s-.3-3.3-.9-4.2c-.5-1.1-1.4-1.9-2.6-2.5s-2.5-1-4-1.2c-1.5-.2-3.3-.3-5.1-.3h-10.7v16.9h0v-.2Z"/>
  <path class="st2" d="M307,57.3c1-.2,1.7-.4,2.3-.7.5-.3,1-.8,1.1-1.4,0-.7.2-1.2.2-1.8,0-1.8-.5-3.4-1.7-4.4-1.1-1.1-3.1-1.7-5.9-1.7s-2.4,0-3.4.3c-1.1.2-1.9.5-2.7,1.1-.8.5-1.4,1.2-1.9,2.1s-.9,2-1,3.4h-3.6c0-1.8.5-3.4,1.2-4.7.7-1.2,1.6-2.4,2.7-3.1,1.1-.9,2.5-1.4,3.9-1.8,1.5-.4,3-.5,4.8-.5s2.9.2,4.3.4c1.3.4,2.6.9,3.5,1.6,1.1.8,1.8,1.7,2.4,2.9.5,1.2.9,2.7.9,4.4v16.7c0,1.4.3,2.3.8,2.7.4.4,1.5.3,2.9-.3v2.7c-.3,0-.7.2-1.2.4-.5.2-1.1.2-1.6.2s-1.1,0-1.6-.2c-.5,0-1.1-.3-1.4-.5-.4-.3-.7-.7-.9-1.1-.2-.4-.4-.9-.4-1.3,0-.4,0-1.1,0-1.6-1.5,1.6-3.3,2.9-5.1,3.8-1.9.9-4,1.3-6.3,1.3s-2.7-.2-3.9-.5-2.4-1-3.4-1.6c-1-.8-1.7-1.7-2.3-2.7-.5-1.1-.9-2.4-.9-3.9,0-5.2,3.6-8.2,10.7-9.2,0,0,6.5-.9,7.4-1.1ZM310.7,59.4c-1.5.7-3,1.1-4.6,1.2s-3,.4-4.7.4c-2.7.2-4.9.9-6.4,1.8-1.5,1.1-2.3,2.6-2.3,4.7s.2,1.8.5,2.5.9,1.2,1.5,1.7c.5.4,1.3.8,2.1,1.1.9.2,1.6.3,2.5.3,1.4,0,2.7-.2,4.2-.5,1.3-.4,2.6-.9,3.6-1.6,1.1-.8,1.9-1.6,2.5-2.7.7-1.1,1-2.5,1-4v-4.8h0Z"/>
  <path class="st2" d="M327,75.5h-3.5v-30.7h3.5v4.2c1.4-1.5,2.8-2.7,4.3-3.7,1.5-1,3.4-1.4,5.5-1.4s3.6.3,5.2,1c1.6.7,2.9,1.8,4.1,3.4.8,1.1,1.2,2.3,1.3,3.4s.2,2.4.2,3.6v20.1h-3.5v-20.1c0-2.7-.5-4.9-1.8-6.2-1.2-1.4-3.3-2.1-6.1-2.1s-2.2.1-3.1.4c-1,.4-1.6.8-2.4,1.4s-1.3,1.1-1.9,1.9c-.4.7-1,1.4-1.1,2.3-.4,1-.5,1.9-.7,2.8,0,1,0,1.9,0,2.9v16.5h0v.2Z"/>
  <path class="st2" d="M356.2,75.5v-42.6h3.5v26.5l15-14.5h4.9l-11.5,11.1,12.8,19.5h-4l-11.5-17.1-5.8,5.5v11.6h-3.5,0Z"/>
  <path class="st3" d="M45.4,51.8L8.7,15.1.9,22.8c8,8,12.9,19,12.9,31.2s-5,23.2-12.9,31.2l7.7,7.8,36.7-36.7c1.2-1.2,1.2-3.3,0-4.5M31.9,55.6l-9.8,9.8v-22.9l9.8,9.8c.9.9.9,2.3,0,3.2h0Z"/>
  <path class="st1" d="M27,74.6l-13.7-13.6c-1.5,9.4-5.9,17.8-12.4,24.2l7.7,7.8s18.4-18.4,18.4-18.4Z"/>
  <path class="st0" d="M8.7,15.1L.9,22.8c6.8,6.8,11.4,15.8,12.6,25.8l8.5-1.6v-4.5l3.8,3.8,11.9-2.2L8.7,15.1h0Z"/>
</svg>