<?xml version="1.0" encoding="UTF-8"?>
<svg id="Layer_2" xmlns="http://www.w3.org/2000/svg" xmlns:xlink="http://www.w3.org/1999/xlink" version="1.1" viewBox="0 0 584.1 93.1">
  <!-- Generator: Adobe Illustrator 30.0.0, SVG Export Plug-In . SVG Version: 2.1.1 Build 123)  -->
  <defs>
    <style>
      .st0 {
        fill: url(#linear-gradient);
      }

      .st1 {
        fill: #0caa57;
      }

      .st2 {
        fill: #2e2e30;
      }
    </style>
    <linearGradient id="linear-gradient" x1="2.3" y1="19.9" x2="66.4" y2="81.3" gradientTransform="translate(0 111.2) scale(1 -1)" gradientUnits="userSpaceOnUse">
      <stop offset="0" stop-color="#6f36ff"/>
      <stop offset="1" stop-color="#4b28f9"/>
    </linearGradient>
  </defs>
  <g id="Layer_1-2">
    <g>
      <g>
        <path class="st0" d="M70.6,66.5c-5.3,0-9.6-4.3-9.6-9.6s4.3-9.6,9.6-9.6.2,0,.2,0c-5-14.4-18.6-24.8-34.7-24.8h0c-19.4,0-35.1,15.7-35.1,35.1v35h38.4c16,0,29.4-11.3,32.7-26.4-.5,0-1,.1-1.5.1h0ZM46,66.5c-5.3,0-9.6-4.3-9.6-9.6s4.3-9.6,9.6-9.6,9.6,4.3,9.6,9.6-4.3,9.6-9.6,9.6Z"/>
        <path class="st1" d="M80.9,38.8c-12.7,0-23-10.3-23-23h22.9v23s0,0,0,0Z"/>
      </g>
      <g>
        <path class="st2" d="M116.1,41.6c9.2,0,16.6,7.5,16.6,16.8s-7.5,16.9-16.6,16.9-6.9-1.2-9.2-3.4v11.1c0,2.1-1.7,3.8-3.8,3.8s-3.8-1.8-3.8-3.8v-24.5c0-9.3,7.5-16.8,16.9-16.8h0ZM116.1,49.2c-5.1,0-9.2,4.2-9.2,9.2,0,5.1,4.1,9.2,9.2,9.2s9.1-4.1,9.1-9.2-4.2-9.2-9.1-9.2h0Z"/>
        <path class="st2" d="M134.9,45.4c0-2.1,1.7-3.9,3.8-3.9s3.8,1.8,3.8,3.9v14.5c0,4.1,3.4,7.5,7.5,7.5s7.5-3.4,7.5-7.5v-14.5c0-2.1,1.7-3.9,3.8-3.9s3.8,1.8,3.8,3.9v14.5c0,8.4-6.8,15.2-15.2,15.2s-15.2-6.9-15.2-15.2v-14.5h0Z"/>
        <path class="st2" d="M183.4,41.6c2.1,0,3.8,1.8,3.8,3.8s-1.8,3.8-3.8,3.8c-4.2,0-7.5,3.4-7.5,7.5v14.7c0,2.2-1.7,3.9-3.8,3.9s-3.8-1.7-3.8-3.9v-14.7c0-8.3,6.8-15.2,15.2-15.2h0Z"/>
        <path class="st2" d="M203.1,41.6c9.2,0,16.6,7.5,16.6,16.8s-7.5,16.9-16.6,16.9-6.9-1.2-9.2-3.4v11.1c0,2.1-1.7,3.8-3.8,3.8s-3.8-1.8-3.8-3.8v-24.5c0-9.3,7.5-16.8,16.9-16.8h0ZM203.1,49.2c-5.1,0-9.2,4.2-9.2,9.2,0,5.1,4.1,9.2,9.2,9.2s9.1-4.1,9.1-9.2-4.2-9.2-9.1-9.2h0Z"/>
        <path class="st2" d="M226.3,30.9c2.5,0,4.4,1.8,4.4,4.3s-1.9,4.3-4.4,4.3-4.3-1.9-4.3-4.3,1.9-4.3,4.3-4.3ZM226.3,41.6c2.2,0,4,1.8,4,3.9v25.9c0,2.1-1.8,3.8-4,3.8s-3.8-1.8-3.8-3.8v-25.9c0-2.1,1.8-3.9,3.8-3.9h0Z"/>
        <path class="st2" d="M249.2,41.6c8.3,0,15.2,6.9,15.2,15.2v14.7c0,2.1-1.8,3.8-3.8,3.8s-3.9-1.8-3.9-3.8v-14.7c0-4.2-3.4-7.5-7.5-7.5s-7.5,3.4-7.5,7.5v14.7c0,2.1-1.7,3.8-3.9,3.8s-3.8-1.8-3.8-3.8v-14.7c0-8.3,6.9-15.2,15.2-15.2h0Z"/>
      </g>
    </g>
  </g>
</svg>