<?xml version="1.0" encoding="UTF-8"?>
<svg id="Layer_1" xmlns="http://www.w3.org/2000/svg" version="1.1" viewBox="0 0 584.1 93.1">
  <!-- Generator: Adobe Illustrator 30.0.0, SVG Export Plug-In . SVG Version: 2.1.1 Build 123)  -->
  <defs>
    <style>
      .st0 {
        fill: #ed1111;
      }
    </style>
  </defs>
  <path class="st0" d="M28.7,67.7c0-7.4-27.3-7-27.3-22.6v-1.5c0-7.8,7.9-14.4,24.6-14.4s24.4,6.6,24.4,14.4v5.1h-21.4v-1.4c0-3.6,0-5.8-3-5.8s-3.3,2.2-3.3,3.6c0,7.1,27.3,7.9,27.3,22.6v1.5c0,7.8-7.9,14.4-24.6,14.4S1,77,1,69.2v-4.3h21.4v1.3c0,2.9,0,5,3,5s3.3-2.2,3.3-3.6ZM73.3,83.6c-13,0-19.1-6.6-19.1-14.4v-25.5c0-7.8,6.2-14.4,19.1-14.4s19,6.6,19,14.4v25.5c0,7.8-6.2,14.4-19,14.4ZM73.3,71.3c2.4,0,2.4-2.2,2.4-5v-18.8c0-3.6,0-5.8-2.4-5.8s-2.5,2.2-2.5,5.8v18.8c0,2.9,0,5,2.5,5ZM112.3,43.6c0-7.8,7.9-14.4,24.6-14.4s24.5,6.6,24.5,14.4v8.1h-21.4v-4.4c0-3.6,0-5.8-3.1-5.8s-3.2,2.2-3.2,5.8v18.1c0,3.6,0,5.8,3,5.8s3.3-2.2,3.3-5.8h-2.8v-10.2h24.2v27.1h-21.4v-2.5c-3.3,2-7.8,3.3-13.3,3.3-10,0-14.4-6.1-14.4-12.5v-27ZM165.1,82.4V30.4h16.6v40.1h15.6v11.9h-32.2ZM221.7,82.4l-.6-5.5h-5.2l-.6,5.5h-14.2l8.9-51.9h17.1l8.9,51.9h-14.2ZM217,65.8h3l-1.5-14.4-1.5,14.4ZM256.3,70.1c2,0,2-2.2,2-5v-16.5c0-3.6,0-5.8-2-5.8h-3v27.3h3ZM239.9,82.4V30.4h16.4c11.1,0,16.3,6.6,16.3,14.4v23.2c0,7.8-5.2,14.4-16.3,14.4h-16.4Z"/>
  <circle class="st0" cx="282.2" cy="75.2" r="7.2"/>
</svg>